<?xml version="1.0" standalone="no"?>
<!DOCTYPE svg PUBLIC "-//W3C//DTD SVG 20010904//EN"
 "http://www.w3.org/TR/2001/REC-SVG-20010904/DTD/svg10.dtd">
<svg version="1.0" xmlns="http://www.w3.org/2000/svg"
 width="700.000000pt" height="700.000000pt" viewBox="0 0 700.000000 700.000000"
 preserveAspectRatio="xMidYMid meet">
<metadata>
Created by potrace 1.14, written by Peter Selinger 2001-2017
</metadata>
<g transform="translate(0.000000,700.000000) scale(0.100000,-0.100000)"
fill="#000000" stroke="none">
<path d="M545 6990 c-251 -38 -453 -216 -522 -460 -17 -62 -18 -184 -18 -3030
0 -2846 1 -2968 18 -3030 61 -214 233 -386 447 -447 62 -17 184 -18 3025 -18
2454 0 2969 2 3015 14 180 44 342 173 418 332 73 153 67 -115 67 3154 0 2841
-1 2963 -18 3025 -60 211 -229 382 -442 446 -57 18 -189 19 -3000 20 -1617 1
-2962 -2 -2990 -6z m4580 -1425 c85 -23 149 -61 210 -127 64 -68 100 -142 114
-229 7 -40 11 -320 11 -734 l1 -670 60 -70 c166 -192 283 -428 341 -686 20
-91 23 -131 23 -314 0 -183 -3 -223 -23 -314 -117 -520 -466 -929 -954 -1117
-457 -177 -987 -118 -1394 155 -49 32 -120 86 -158 120 l-69 61 -691 0 c-593
0 -700 2 -751 16 -124 32 -225 115 -283 233 l-37 75 0 1645 0 1646 31 65 c57
120 164 212 284 244 85 23 3198 23 3285 1z"/>
<path d="M1960 4595 l0 -325 655 0 655 0 0 325 0 325 -655 0 -655 0 0 -325z"/>
<path d="M3710 4595 l0 -325 655 0 655 0 0 325 0 325 -655 0 -655 0 0 -325z"/>
<path d="M1960 3500 l0 -330 466 2 466 3 32 90 c63 174 170 352 290 482 36 39
66 74 66 77 0 3 -297 6 -660 6 l-660 0 0 -330z"/>
<path d="M4205 3783 c-16 -2 -65 -13 -107 -24 -299 -75 -552 -282 -688 -564
-88 -182 -122 -371 -101 -564 15 -144 42 -235 106 -366 255 -521 888 -737
1412 -480 284 139 476 379 566 705 30 110 29 381 -1 493 -114 418 -426 714
-832 791 -76 15 -277 20 -355 9z m265 -700 l0 -308 251 -144 c137 -80 258
-150 267 -157 14 -10 8 -26 -63 -149 -44 -76 -84 -138 -88 -138 -5 0 -164 89
-353 198 l-344 198 0 404 0 403 165 0 165 0 0 -307z"/>
<path d="M1960 2405 l0 -325 506 0 c478 0 506 1 499 18 -72 170 -121 366 -131
530 l-7 102 -434 0 -433 0 0 -325z"/>
</g>
</svg>
